<?xml version="1.0" standalone="no"?><!DOCTYPE svg PUBLIC "-//W3C//DTD SVG 1.1//EN" "http://www.w3.org/Graphics/SVG/1.1/DTD/svg11.dtd"><svg t="1737884703876" class="icon" viewBox="0 0 1024 1024" version="1.1" xmlns="http://www.w3.org/2000/svg" p-id="19401" xmlns:xlink="http://www.w3.org/1999/xlink" width="128" height="128"><path d="M329.142857 438.857143c40.393143 0 73.142857-32.749714 73.142857-73.142857 0-40.411429-32.749714-73.142857-73.142857-73.142857-40.356571 0-73.142857 32.731429-73.142857 73.142857C256 406.107429 288.786286 438.857143 329.142857 438.857143z" fill="#F69661" p-id="19402"></path><path d="M658.285714 393.142857 441.536 698.784914 329.142857 542.749257 146.285714 804.571429 877.714286 804.571429Z" fill="#F69661" p-id="19403"></path><path d="M950.857143 91.428571 73.142857 91.428571c-20.214857 0-36.571429 16.374857-36.571429 36.571429l0 768c0 20.214857 16.356571 36.571429 36.571429 36.571429l877.714286 0c20.214857 0 36.571429-16.356571 36.571429-36.571429L987.428571 128C987.428571 107.803429 971.072 91.428571 950.857143 91.428571zM914.285714 859.428571 109.714286 859.428571 109.714286 164.571429l804.571429 0L914.285714 859.428571z" fill="#F69661" p-id="19404"></path></svg>