<?xml version="1.0" standalone="no"?><!DOCTYPE svg PUBLIC "-//W3C//DTD SVG 1.1//EN" "http://www.w3.org/Graphics/SVG/1.1/DTD/svg11.dtd"><svg t="1737036404341" class="icon" viewBox="0 0 1316 1024" version="1.1" xmlns="http://www.w3.org/2000/svg" p-id="1735" xmlns:xlink="http://www.w3.org/1999/xlink" width="164.5" height="128"><path d="M930.011429 969.142857H365.714286c-171.446857 0-310.857143-152.137143-310.857143-339.017143a356.205714 356.205714 0 0 1 62.317714-203.629714c38.985143-56.32 94.208-98.962286 155.648-119.954286l23.259429-7.899428 9.508571-22.674286C362.203429 141.604571 486.326857 54.857143 621.714286 54.857143c103.424 0 200.777143 49.737143 267.117714 136.484571l15.506286 20.260572 25.453714 1.170285c88.795429 4.242286 171.812571 44.982857 233.910857 114.688 63.195429 70.948571 98.011429 164.498286 98.011429 263.314286 0 95.817143-32.987429 187.245714-92.891429 257.462857-58.587429 68.754286-137.947429 111.177143-223.232 119.442286l-15.579428 1.462857z" fill="#0d79fd" p-id="1736" data-spm-anchor-id="a313x.manage_type_mylikes.0.i6.25f03a81ZNaNqX" class="selected"></path><path d="M927.305143 914.285714l12.946286-1.243428c71.168-6.875429 137.508571-42.569143 186.88-100.425143 51.419429-60.269714 79.725714-139.044571 79.725714-221.842286 0-85.357714-29.915429-165.888-84.114286-226.816-52.224-58.587429-121.636571-92.891429-195.584-96.329143l-50.907428-2.486857-31.012572-40.521143C789.430857 151.625143 708.022857 109.714286 621.714286 109.714286c-113.371429 0-217.6 73.581714-265.508572 187.465143l-19.017143 45.421714-46.665142 15.945143c-50.322286 17.188571-95.817143 52.370286-128.219429 99.181714a301.568 301.568 0 0 0-52.662857 172.397714C109.714286 786.797714 224.548571 914.285714 365.714286 914.285714h561.590857zM950.857143 1024H365.714286c-201.947429 0-365.714286-176.347429-365.714286-393.874286C0 454.217143 107.154286 305.152 255.049143 254.683429 318.244571 104.448 458.678857 0 621.714286 0c125.074286 0 236.982857 61.44 310.710857 157.988571C1146.148571 168.228571 1316.571429 358.107429 1316.571429 590.774857c0 226.011429-160.694857 411.574857-365.714286 431.469714V1024z" fill="#0d79fd" p-id="1737" data-spm-anchor-id="a313x.manage_type_mylikes.0.i4.25f03a81ZNaNqX" class=""></path><path d="M499.346286 636.342857a54.857143 54.857143 0 0 0-70.363429 84.114286l127.049143 106.276571a54.857143 54.857143 0 0 0 90.038857-42.057143V392.265143a54.857143 54.857143 0 0 0-109.714286 0v275.017143L499.346286 636.342857zM848.457143 540.672a54.857143 54.857143 0 0 0 70.436571-84.114286l-127.049143-106.276571a54.857143 54.857143 0 0 0-90.038857 42.057143v392.411428a54.857143 54.857143 0 1 0 109.714286 0v-275.017143l37.010286 30.939429z" fill="#ffffff" p-id="1738" data-spm-anchor-id="a313x.manage_type_mylikes.0.i5.25f03a81ZNaNqX" class=""></path></svg>