<?xml version="1.0" standalone="no"?><!DOCTYPE svg PUBLIC "-//W3C//DTD SVG 1.1//EN" "http://www.w3.org/Graphics/SVG/1.1/DTD/svg11.dtd"><svg t="1737036941074" class="icon" viewBox="0 0 1024 1024" version="1.1" xmlns="http://www.w3.org/2000/svg" p-id="1461" xmlns:xlink="http://www.w3.org/1999/xlink" width="128" height="128"><path d="M896.628534 547.015569c1.005547-11.898976 1.843503-23.295178 1.843503-35.696928 0-12.40175-0.502774-23.797952-1.843503-35.696928l89.828889-71.226265c19.440581-16.088756 24.300726-43.238533 11.898976-65.02539l-96.029764-167.758803c-12.40175-21.451675-38.043205-31.339557-62.679113-21.786857l-105.414872 42.735759c-19.440581-13.742479-39.383935-25.641455-60.332836-35.696928l-16.088756-113.626841c-3.854598-24.635908-25.138682-43.238533-50.277363-43.238533L415.809348-0.002145c-25.138682 0-46.087583 18.099851-50.277363 43.741306l-16.088756 113.626841c-20.948901 10.055473-40.892256 21.786857-60.332836 35.696928l-105.414872-42.735759c-22.792405-9.049925-50.277363 1.005547-62.176339 22.289631L25.321825 340.375605c-12.40175 21.786857-7.541605 49.439407 12.40175 65.528164l89.326116 70.723491c-1.005547 11.898976-1.843503 23.295178-1.843503 35.696928s0.502774 23.797952 1.843503 35.696928l-89.828889 71.226265c-19.440581 16.088756-24.300726 43.238533-11.898976 65.02539l96.029764 167.758803c12.40175 21.451675 38.881161 31.339557 62.679113 21.786857l105.414872-42.735759c19.440581 13.742479 39.383935 25.641455 60.332836 35.696928l16.088756 113.962024c3.854598 25.138682 25.138682 43.238533 50.277363 43.238533l191.389164 0c24.635908 0 46.590357-18.602624 50.277363-43.741306l16.088756-113.626841c20.948901-10.055473 40.892256-21.451675 60.332836-35.696928l105.414872 43.238533c5.698101 2.346277 11.898976 3.351824 18.602624 3.351824 18.099851 0 35.194154-10.055473 44.24408-25.641455l95.526991-167.758803c12.40175-21.451675 7.541605-48.936634-12.40175-65.528164L896.628534 547.015569zM860.09365 823.038295l-119.324943-48.43386c-9.049925-3.854598-18.937807-2.346277-26.647003 3.854598-23.797952 18.099851-48.936634 33.18306-75.080863 43.741306-8.547152 3.854598-14.748027 11.898976-16.088756 20.948901l-17.597077 125.358226-186.193836 2.849051-18.099851-128.207277c-1.508321-9.552699-7.541605-17.597077-16.088756-20.948901-26.144229-10.893429-51.282911-25.641455-75.080863-43.741306-4.692554-3.854598-10.390655-5.698101-16.59153-5.698101-3.351824 0-6.703648 0.502774-10.055473 1.843503l-114.967571 49.439407L71.409409 659.636863l101.225092-79.773417c7.541605-5.698101 11.396202-15.2508 10.055473-24.635908-1.843503-14.245253-3.351824-28.99328-3.351824-43.741306 0-14.748027 1.508321-29.496053 3.351824-43.741306 1.508321-9.552699-2.346277-18.602624-10.055473-24.635908l-100.219544-76.421592 91.672393-166.753255 119.324943 48.43386c9.049925 3.854598 18.937807 2.346277 26.647003-3.854598 23.797952-18.099851 48.936634-33.18306 75.080863-44.24408 8.547152-3.854598 14.748027-11.898976 16.088756-20.948901l14.748027-125.358226 188.540113-2.849051 18.099851 128.207277c1.508321 9.552699 7.541605 17.597077 16.088756 20.948901 26.144229 10.893429 51.282911 25.641455 75.080863 44.24408 7.541605 5.698101 17.597077 7.206422 26.647003 3.854598l114.967571-49.439407 96.86772 163.904205-101.225092 79.773417c-7.541605 5.698101-11.396202 15.2508-10.055473 24.635908 1.843503 14.245253 3.351824 28.99328 3.351824 43.741306s-1.508321 29.496053-3.351824 43.741306c-1.005547 9.552699 2.849051 18.602624 10.055473 24.635908l100.219544 76.421592L860.09365 823.038295zM512.341886 309.036049c-110.777791 0-200.941863 90.666845-200.941863 202.785366 0 111.615747 90.331663 202.785366 200.941863 202.785366S713.283749 624.107527 713.283749 511.989006C713.283749 399.870486 622.952086 309.036049 512.341886 309.036049zM512.341886 660.642411c-81.281738 0-147.312675-67.036485-147.312675-149.156178s66.030937-149.156178 147.312675-149.156178 147.312675 67.036485 147.312675 149.156178S593.623624 660.642411 512.341886 660.642411z" fill="#272636" p-id="1462"></path></svg>